<?xml version="1.0" standalone="no"?>
<!DOCTYPE svg PUBLIC "-//W3C//DTD SVG 20010904//EN"
 "http://www.w3.org/TR/2001/REC-SVG-20010904/DTD/svg10.dtd">
<svg version="1.0" xmlns="http://www.w3.org/2000/svg"
 width="805.000000pt" height="813.000000pt" viewBox="0 0 805.000000 813.000000"
 preserveAspectRatio="xMidYMid meet">

<g transform="translate(0.000000,813.000000) scale(0.100000,-0.100000)"
fill="#000000" stroke="none">
<path d="M0 4065 l0 -4065 4025 0 4025 0 0 4065 0 4065 -4025 0 -4025 0 0
-4065z m3650 3761 c-222 -76 -448 -207 -765 -441 -492 -364 -741 -527 -988
-651 -448 -225 -814 -300 -1083 -221 -79 22 -209 91 -236 125 -10 12 -6 11 17
-3 30 -19 30 -19 13 1 -19 22 -48 123 -48 168 0 16 7 59 16 94 50 200 266 412
576 568 388 194 864 315 1453 368 247 23 232 22 705 24 l435 1 -95 -33z m4108
-2582 c1 -1434 0 -2605 -2 -2603 -4 4 -15 734 -17 1174 -2 298 -16 206 -20
-130 l-4 -280 -5 340 -5 340 -3 -255 c-2 -140 -8 -264 -13 -275 -7 -15 -8 -12
-3 13 l6 32 -86 0 c-54 0 -86 -4 -86 -11 0 -6 -28 -9 -80 -6 -48 2 -84 -1 -91
-7 -9 -8 -10 -7 -4 3 5 8 10 39 11 69 2 29 7 59 12 65 5 7 6 23 2 37 -5 21 -8
17 -14 -24 -11 -67 -16 -81 -27 -64 -5 7 -8 20 -8 28 0 10 3 9 10 -5 7 -15 8
-10 3 18 -3 23 -1 37 4 33 5 -3 9 7 9 22 0 15 11 70 26 123 45 166 96 433 102
529 16 280 16 328 6 460 -59 716 -331 1370 -771 1856 -329 363 -684 620 -1144
828 -239 108 -491 183 -811 241 -231 42 -365 29 -634 -61 -225 -75 -431 -181
-682 -350 -77 -51 -164 -113 -193 -136 -30 -24 -94 -74 -142 -113 -182 -145
-345 -301 -598 -575 -308 -334 -429 -449 -587 -558 -355 -246 -600 -278 -873
-114 -82 49 -210 161 -247 216 l-22 31 27 -27 c15 -16 31 -28 36 -28 6 0 10
-7 10 -16 0 -9 5 -12 12 -8 7 5 8 3 3 -6 -5 -9 -2 -10 12 -6 12 4 25 1 33 -9
7 -8 19 -15 26 -15 8 0 14 -4 14 -9 0 -5 14 -8 31 -7 16 1 32 -1 35 -6 3 -5
10 -6 15 -3 5 4 9 3 9 -2 0 -18 136 -14 220 7 47 12 96 21 109 21 13 -1 29 3
36 9 7 5 24 11 39 12 14 1 26 6 26 10 0 4 5 8 11 8 6 0 25 6 42 14 92 40 157
65 157 60 0 -3 20 9 44 26 25 16 51 30 60 30 8 0 17 4 20 9 3 4 19 11 35 14
17 4 39 15 50 26 23 23 107 62 115 53 3 -3 6 3 6 12 0 13 6 17 20 13 15 -4 20
0 20 14 0 21 1 22 24 13 9 -3 16 -12 16 -20 0 -24 19 -15 35 15 23 46 34 45
20 -2 -16 -53 -16 -59 4 -75 14 -11 13 -12 -6 -3 -31 16 -41 13 -19 -4 11 -8
15 -15 10 -15 -20 0 -34 23 -22 37 8 11 7 12 -6 7 -9 -3 -17 -14 -18 -23 0 -9
-2 -21 -2 -27 -1 -6 -8 -20 -16 -30 -14 -17 -14 -18 2 -6 9 7 19 9 22 4 6 -10
-51 -45 -63 -38 -4 3 -8 -4 -7 -17 1 -13 -4 -21 -12 -19 -8 1 -11 -2 -7 -8 5
-8 11 -7 21 1 8 6 12 14 9 17 -3 3 12 15 33 28 22 14 37 31 38 43 1 12 -3 21
-7 21 -5 0 -9 5 -9 10 0 6 8 5 19 -2 11 -7 17 -17 13 -23 -3 -5 13 8 36 29 22
22 39 43 36 48 -3 5 0 7 8 6 7 -2 12 3 11 9 -2 7 1 12 6 10 5 -1 44 35 87 80
44 45 142 148 219 228 135 141 375 367 500 470 33 28 62 52 65 55 42 42 393
286 530 368 72 44 341 174 405 197 28 10 73 28 100 40 28 12 62 25 77 29 15 3
40 11 55 17 22 8 25 12 13 20 -11 8 -6 9 20 5 25 -4 31 -3 20 4 -8 5 -24 11
-35 12 -34 5 2187 13 2850 11 l630 -2 3 -2607z m-2895 2242 c27 -2 51 -7 54
-10 4 -3 21 -6 39 -6 18 0 43 -4 56 -9 13 -5 59 -19 103 -31 163 -45 218 -66
370 -142 182 -92 320 -175 338 -205 4 -7 13 -13 19 -13 13 0 102 -75 155 -132
12 -13 33 -31 48 -41 15 -11 24 -25 21 -33 -3 -8 1 -14 9 -14 21 0 19 -18 -2
-23 -20 -4 -20 -4 52 -27 22 -6 76 -29 121 -51 137 -65 263 -209 300 -341 63
-226 18 -412 -137 -567 -158 -157 -357 -198 -544 -110 -50 24 -137 105 -162
153 -11 19 -17 55 -18 92 0 51 4 66 28 97 29 38 64 54 94 42 16 -5 14 -8 -9
-23 -83 -50 -29 -174 90 -208 81 -24 150 -15 211 27 28 18 56 45 63 59 7 14
17 28 23 32 6 4 10 51 10 105 0 87 -3 104 -28 150 -38 73 -92 129 -162 168
-166 94 -358 83 -497 -26 -45 -37 -138 -163 -138 -190 0 -10 -4 -20 -9 -23 -5
-4 -12 -39 -16 -80 -9 -96 15 -220 57 -295 73 -130 250 -252 413 -284 84 -16
67 -25 -70 -34 -155 -10 -269 37 -390 161 -111 114 -174 259 -175 403 0 34 -4
64 -9 68 -12 7 -26 -99 -16 -117 6 -9 5 -10 -3 -3 -5 6 -12 19 -14 29 -2 16
-5 14 -18 -10 -7 -16 -26 -42 -42 -59 -15 -16 -28 -34 -30 -40 -2 -5 -6 -9
-10 -8 -5 2 -8 -4 -8 -12 0 -8 -4 -15 -9 -15 -4 0 -11 -24 -15 -54 -3 -29 -12
-66 -20 -81 -8 -15 -12 -33 -10 -40 3 -7 1 -16 -4 -19 -6 -3 -7 -35 -4 -72 4
-49 2 -65 -7 -60 -7 5 -11 -4 -11 -30 0 -43 -54 -144 -77 -144 -9 0 -13 -6 -9
-15 4 -11 -1 -15 -19 -15 -27 0 -42 -16 -23 -23 8 -3 6 -6 -4 -6 -10 -1 -18
-8 -18 -16 0 -35 -54 -99 -76 -91 -7 3 -10 -2 -7 -15 5 -17 0 -19 -38 -20 -34
0 -39 -2 -24 -9 19 -8 19 -9 -2 -9 -14 -1 -21 -6 -17 -14 3 -9 -9 -18 -36 -27
-22 -7 -40 -18 -39 -24 4 -31 -4 -43 -36 -55 -19 -7 -39 -10 -44 -7 -4 3 -16
-3 -26 -14 -10 -11 -13 -20 -7 -20 6 0 10 -9 9 -19 -1 -16 -5 -18 -20 -9 -14
7 -17 7 -12 -1 7 -12 -2 -11 -85 10 -43 10 -185 91 -300 170 -114 77 -234 176
-415 338 -383 344 -638 486 -959 536 -103 16 -264 16 -331 -1 -18 -4 -18 -3
-4 8 8 7 18 21 22 31 3 9 11 17 17 17 5 0 10 7 10 16 0 10 5 14 16 10 8 -3 13
-2 10 3 -3 4 5 14 18 21 14 7 27 21 29 31 3 11 12 19 20 19 8 0 17 9 20 20 3
12 14 20 25 20 12 0 30 14 42 30 12 17 27 30 33 30 7 0 25 11 41 25 16 14 33
25 38 25 5 0 6 5 3 10 -3 6 0 10 8 10 8 0 17 7 20 15 4 8 22 21 42 29 19 8 38
22 41 31 3 8 16 15 28 15 12 1 33 17 51 40 17 21 35 39 41 40 6 0 19 9 29 20
10 11 27 20 37 20 10 0 27 13 36 30 9 16 28 32 42 35 14 4 37 18 51 32 18 16
29 21 34 14 10 -17 25 -3 25 24 0 23 17 35 51 35 31 0 77 28 84 50 4 12 16 25
28 31 27 11 60 32 67 41 3 4 18 11 33 17 16 6 27 18 27 30 0 23 25 47 34 32 9
-14 44 20 38 37 -3 8 6 12 26 12 22 0 32 6 37 20 3 11 12 20 19 20 14 0 44 27
66 59 l14 21 12 -21 c11 -21 12 -20 30 17 10 22 26 39 34 39 8 0 14 8 14 18
-1 9 1 15 5 12 4 -2 15 5 24 16 10 11 29 19 47 19 18 0 30 5 30 13 0 18 77 96
107 108 13 5 35 9 49 9 13 0 24 6 24 13 0 11 69 48 117 62 11 3 27 12 33 20 7
8 22 15 33 15 11 0 34 4 51 9 48 15 224 41 291 44 33 1 98 -1 145 -5 47 -4
107 -10 133 -12z m-2686 -1140 c-3 -7 -1 -18 4 -23 6 -6 4 -10 -5 -10 -7 0
-12 7 -11 16 2 9 4 19 4 24 1 4 4 7 7 7 3 0 4 -6 1 -14z m3700 -176 c29 -19
51 -36 49 -37 -2 -2 -39 5 -83 17 -92 24 -150 17 -230 -24 -79 -42 -104 -69
-139 -153 l-25 -58 5 52 c11 110 84 198 196 234 14 5 59 7 100 6 67 -3 82 -8
127 -37z m-5588 -465 l2 50 16 -30 c23 -45 43 -64 59 -58 8 3 14 0 14 -6 0 -6
6 -11 13 -11 6 -1 26 -18 42 -40 17 -21 42 -43 58 -49 15 -5 27 -17 27 -25 0
-14 51 -46 75 -46 23 0 73 -31 89 -55 11 -17 26 -25 46 -25 16 0 32 -5 35 -10
4 -6 10 -8 14 -6 4 3 18 -9 31 -26 20 -27 21 -34 10 -52 -11 -19 -10 -19 11 2
19 18 21 24 10 31 -10 7 -10 10 -1 16 11 7 29 -10 30 -27 0 -5 -39 -33 -87
-64 -301 -194 -464 -421 -527 -734 -8 -39 3 1065 11 1160 l8 85 6 -65 c5 -63
6 -64 8 -15z m1281 -306 c0 -7 -6 -4 -15 7 -19 25 -19 40 0 20 8 -8 15 -20 15
-27z m-24 -32 c-3 -13 -13 -24 -21 -24 -9 0 -14 5 -12 11 3 6 10 10 16 9 6 -2
11 7 11 19 0 12 3 19 6 15 4 -3 4 -17 0 -30z m-642 -14 c-9 -7 -21 -10 -25 -7
-17 10 -9 19 16 19 22 0 23 -1 9 -12z m609 -31 c2 7 7 11 10 8 3 -3 -5 -28
-18 -55 -52 -112 -79 -224 -79 -335 -1 -58 3 -125 7 -149 7 -39 6 -43 -10 -36
-10 4 -53 9 -96 12 -65 5 -75 8 -60 18 10 7 27 15 38 18 15 3 13 5 -8 6 -20 1
-26 5 -20 14 4 6 8 17 9 22 2 6 4 19 6 30 3 11 12 37 21 58 9 20 18 55 21 77
5 42 31 90 38 69 2 -6 4 5 5 26 1 26 9 45 28 65 15 16 24 33 20 40 -4 6 1 17
11 24 10 8 17 26 17 45 0 21 3 27 9 19 6 -10 10 -7 14 10 5 17 10 20 19 12 9
-8 14 -7 18 2z m5551 -304 c5 -10 7 -10 12 0 6 14 44 17 44 3 0 -5 -7 -11 -15
-15 -8 -3 -15 -10 -15 -16 0 -6 5 -8 13 -3 20 13 46 13 53 1 4 -6 8 -32 10
-57 9 -135 16 -177 30 -192 8 -9 14 -20 13 -25 -1 -5 0 -11 1 -14 6 -12 14
-208 13 -342 0 -116 -4 -154 -17 -182 -9 -20 -19 -73 -22 -118 -3 -46 -10 -84
-15 -86 -5 -2 -9 -21 -9 -43 0 -21 -4 -39 -9 -39 -5 0 -8 -7 -7 -16 0 -9 -5
-19 -13 -22 -10 -3 -13 2 -9 21 3 15 1 24 -4 21 -6 -4 -7 -20 -4 -38 15 -81
13 -110 -6 -137 -15 -20 -18 -35 -13 -59 5 -24 10 -29 16 -19 6 10 9 2 9 -23
0 -24 -5 -38 -12 -38 -10 0 -10 -2 0 -9 11 -7 11 -9 -2 -14 -20 -8 -27 15 -8
29 13 9 12 14 -6 32 -17 17 -22 18 -22 7 0 -8 5 -15 10 -15 7 0 7 -6 0 -19 -5
-11 -7 -27 -4 -35 3 -9 1 -16 -5 -16 -6 0 -11 -9 -11 -20 0 -11 5 -20 11 -20
6 0 3 -7 -6 -16 -10 -10 -15 -29 -14 -48 2 -17 -3 -42 -10 -54 -7 -13 -10 -26
-7 -30 3 -3 6 0 6 7 0 7 5 9 10 6 6 -4 1 -15 -12 -26 -13 -12 -17 -18 -10 -14
7 4 12 -1 12 -14 0 -10 6 -21 13 -24 10 -4 10 -7 0 -18 -11 -11 -13 -10 -13 4
0 9 -4 17 -10 17 -12 0 -13 -20 -1 -40 15 -22 1 -34 -15 -13 -14 17 -15 17 -9
-4 4 -13 2 -23 -3 -23 -5 0 -7 -11 -4 -25 2 -15 -3 -36 -14 -52 -34 -51 -42
-72 -37 -93 3 -11 0 -27 -7 -35 -6 -8 -8 -20 -4 -26 5 -8 3 -9 -5 -4 -9 5 -12
-1 -9 -21 2 -24 -1 -30 -19 -32 -22 -3 -28 -17 -24 -56 1 -16 -1 -17 -16 -5
-15 13 -16 12 -10 -10 6 -22 -20 -74 -46 -92 -4 -3 -9 -15 -10 -27 0 -11 -5
-18 -11 -15 -5 4 -7 -1 -3 -11 4 -10 3 -15 -3 -11 -6 3 -10 -3 -10 -14 0 -24
-16 -36 -26 -20 -5 8 -3 9 5 5 8 -5 11 -3 10 5 -4 19 39 109 52 109 6 0 8 4 5
8 -5 9 32 92 44 102 4 3 15 29 24 58 10 28 22 50 27 47 5 -4 6 0 3 8 -3 8 2
32 11 53 24 56 70 208 85 282 7 34 17 62 22 62 5 0 7 4 3 9 -3 6 4 77 16 158
23 160 23 353 -1 463 -14 66 -80 210 -118 259 -15 20 -27 38 -27 41 -2 13 -67
77 -122 120 -34 26 -59 51 -55 54 4 4 3 6 -3 5 -5 -2 -39 14 -75 35 -36 21
-70 39 -76 40 -6 1 -38 13 -72 26 -59 23 -79 40 -48 40 7 0 19 7 26 15 9 10 9
15 1 15 -6 0 -11 -5 -11 -11 0 -6 -10 -10 -22 -9 -41 4 -55 -1 -33 -10 31 -13
-7 -13 -42 1 -41 16 -65 21 -93 20 -18 -1 -21 2 -11 8 15 10 114 7 131 -4 6
-4 17 -1 25 5 11 9 15 9 15 1 0 -8 6 -8 20 1 11 7 20 21 20 30 0 10 5 18 11
18 5 0 7 -4 4 -10 -3 -6 1 -7 9 -4 9 3 14 10 11 15 -3 4 4 6 15 4 11 -2 24 3
29 13 5 9 13 14 17 10 4 -4 20 4 36 17 16 14 34 25 39 25 12 0 12 -17 -1 -25
-5 -3 -10 -11 -10 -17 0 -18 78 56 79 75 1 9 7 17 15 17 7 0 16 9 19 20 3 13
14 20 30 20 14 0 34 3 44 6 15 5 15 4 3 -5 -9 -6 -10 -11 -3 -11 6 0 18 6 26
14 7 8 24 13 38 11 13 -1 16 0 6 2 -22 6 -12 23 13 23 10 0 27 14 37 30 14 25
24 30 55 30 21 0 38 -4 38 -10 0 -5 -13 -10 -30 -10 -16 0 -30 -4 -30 -10 0
-5 12 -10 26 -10 35 0 55 27 43 57 -9 24 5 33 15 11z m-2574 -2 c0 -3 -4 -8
-10 -11 -5 -3 -10 -1 -10 4 0 6 5 11 10 11 6 0 10 -2 10 -4z m20 -60 c0 -4 -6
-3 -13 3 -8 6 -16 9 -19 6 -2 -3 -5 1 -5 9 0 11 4 12 19 3 10 -7 18 -16 18
-21z m-4 -33 c-2 -2 -17 3 -35 10 -17 7 -29 16 -25 19 3 4 18 -1 34 -10 16 -9
27 -18 26 -19z m2267 0 c-7 -2 -13 -11 -13 -19 0 -8 -4 -14 -10 -14 -12 0 -12
3 -4 24 3 9 14 16 23 15 10 0 11 -2 4 -6z m-183 -143 c-24 -15 -36 -11 -14 4
10 8 21 12 24 10 2 -3 -2 -9 -10 -14z m-131 -57 c-6 -7 -15 -10 -20 -7 -5 3
-12 -2 -15 -10 -3 -9 -14 -16 -23 -16 -11 0 -8 7 13 23 32 26 64 33 45 10z
m-79 -3 c0 -5 -4 -10 -10 -10 -5 0 -10 5 -10 10 0 6 5 10 10 10 6 0 10 -4 10
-10z m-60 -10 c0 -5 -12 -10 -27 -9 l-28 1 25 8 c14 4 26 8 28 9 1 1 2 -3 2
-9z m-172 -17 c-10 -2 -28 -2 -40 0 -13 2 -5 4 17 4 22 1 32 -1 23 -4z m87 -3
c18 -8 17 -9 -7 -9 -16 -1 -28 4 -28 9 0 12 8 12 35 0z m316 -208 c118 -96
142 -119 133 -133 -4 -8 -3 -9 4 -5 16 10 96 -95 143 -186 21 -43 51 -117 65
-165 25 -80 27 -104 28 -263 1 -147 -3 -193 -23 -292 -14 -69 -28 -115 -33
-112 -6 4 -8 -1 -5 -12 3 -11 -3 -44 -13 -74 -13 -39 -18 -48 -19 -30 -1 15 3
30 8 35 5 6 12 28 14 50 2 22 10 53 18 68 11 24 11 30 -2 38 -11 7 -11 9 4 9
10 0 15 4 12 10 -3 5 -2 27 4 47 5 21 12 52 15 68 l6 30 -15 -28 c-9 -15 -13
-32 -10 -37 3 -6 -3 -10 -13 -10 -12 0 -22 -9 -26 -22 -10 -38 -7 -78 6 -78 9
0 9 -3 -1 -12 -10 -11 -15 -10 -24 3 -13 18 -107 33 -107 17 0 -6 -51 -8 -130
-6 -71 2 -124 1 -118 -3 9 -6 8 -11 -1 -23 -8 -9 -18 -16 -23 -16 -6 0 -6 6 1
14 15 18 -2 16 -37 -2 -16 -9 -32 -10 -57 -3 -21 6 -35 6 -35 0 0 -5 11 -9 25
-9 14 0 25 -5 25 -11 0 -6 -9 -8 -22 -3 -13 4 -30 7 -38 7 -8 0 -21 4 -28 10
-7 5 -16 7 -19 3 -4 -4 -1 -11 7 -16 8 -6 10 -10 4 -10 -5 0 -15 5 -20 10 -7
7 -17 5 -30 -5 -13 -10 -14 -13 -3 -10 10 4 16 0 16 -9 0 -11 -6 -12 -24 -5
-12 5 -38 6 -55 3 -23 -4 -12 4 32 23 178 77 332 203 395 325 25 48 32 55 45
45 13 -10 13 -10 2 5 -11 14 -11 24 2 62 41 119 45 318 10 436 -9 30 -17 65
-18 77 0 12 -3 19 -5 17 -3 -2 -17 22 -33 53 -15 32 -53 88 -83 126 -30 37
-51 67 -47 67 5 0 46 -31 93 -68z m-4973 -94 l3 -58 -222 -2 -222 -3 1 -120 1
-120 190 -3 191 -2 0 -55 0 -55 -190 0 -190 0 0 -130 0 -130 219 0 c245 0 231
5 231 -76 l0 -44 -284 0 -284 0 -5 23 c-3 12 -4 33 -2 47 1 14 3 195 4 402 l1
378 228 2 c125 2 250 3 277 3 l50 0 3 -57z m237 -23 c18 -44 71 -179 119 -300
48 -121 91 -227 96 -235 16 -24 2 -56 200 453 68 172 67 171 151 165 26 -2 43
-8 42 -14 -1 -6 -49 -130 -107 -275 -57 -145 -132 -335 -166 -422 l-62 -158
-45 3 c-44 3 -46 4 -65 53 -28 72 -200 495 -269 660 -32 76 -55 143 -52 147 2
5 32 8 66 6 l61 -3 31 -80z m1275 20 l0 -66 -187 1 c-104 0 -200 1 -215 0
l-28 0 0 -114 0 -113 130 -8 c71 -4 133 -4 139 -1 5 4 28 3 51 0 l41 -7 -3
-56 -3 -56 -177 4 -178 4 0 -132 0 -131 218 -2 217 -3 0 -60 0 -60 -282 -3
-283 -2 0 435 0 435 280 0 280 0 0 -65z m343 -70 c213 -280 332 -440 341 -457
5 -10 13 -18 18 -18 4 0 8 137 8 305 l0 305 54 0 c30 0 57 -4 60 -8 2 -4 6
-199 7 -432 l2 -425 -49 -2 -49 -3 -62 83 c-35 45 -137 182 -227 303 -90 122
-169 225 -175 228 -8 5 -11 -82 -11 -303 l0 -311 -58 0 -59 0 -6 182 c-9 241
-9 673 0 682 4 4 30 6 57 4 l50 -3 99 -130z m1217 72 c0 -30 -2 -56 -4 -58 -2
-2 -58 -2 -123 1 l-118 5 3 -373 2 -373 -62 3 -63 3 -3 358 -3 357 23 1 c22 1
22 1 -2 9 -14 4 -85 8 -157 9 l-133 1 0 55 0 55 320 0 320 0 0 -53z m200 45
c0 -5 -26 -7 -57 -5 -43 3 -54 2 -43 -6 13 -9 13 -11 -2 -11 -10 0 -18 7 -18
15 0 12 13 15 60 15 33 0 60 -4 60 -8z m563 -134 c10 -221 8 -479 -5 -445 -5
15 -13 27 -18 27 -10 0 -22 -31 -15 -38 3 -3 5 1 5 8 0 28 19 -6 25 -45 5 -30
4 -36 -4 -25 -6 8 -11 24 -11 35 0 15 -2 17 -9 7 -6 -10 -10 -6 -15 14 -6 22
-9 25 -17 13 -5 -7 -9 -10 -9 -5 0 5 -9 -3 -20 -17 -11 -14 -20 -30 -20 -36 0
-6 -5 -11 -11 -11 -7 0 -9 8 -4 23 5 12 10 160 12 330 l5 307 52 0 53 0 6
-142z m563 131 c65 -11 148 -58 168 -94 6 -10 16 -25 23 -32 6 -7 17 -38 23
-68 23 -110 -21 -212 -115 -266 -52 -30 -75 -36 -75 -19 0 6 3 9 8 8 4 -2 8 2
10 7 3 13 -18 14 -41 3 -10 -5 -14 -14 -11 -20 4 -7 3 -8 -4 -4 -7 4 -12 2
-12 -5 0 -8 -5 -7 -17 2 -11 10 -14 10 -9 2 15 -26 14 -50 -5 -61 -15 -10 -20
-8 -31 11 -7 12 -12 25 -11 28 1 3 -4 6 -12 6 -8 0 -11 -5 -8 -10 6 -9 -99 -5
-152 7 -19 4 -20 0 -17 -164 l3 -168 -53 -4 c-29 -2 -59 -2 -65 0 -10 3 -13
98 -13 428 l0 424 177 0 c97 0 204 -5 239 -11z m-1232 -95 c-3 -67 -9 -79 -13
-23 -2 36 5 79 13 79 2 0 2 -25 0 -56z m23 14 c-3 -8 -6 -5 -6 6 -1 11 2 17 5
13 3 -3 4 -12 1 -19z m80 -95 c-2 -16 -4 -3 -4 27 0 30 2 43 4 28 2 -16 2 -40
0 -55z m-20 5 c-3 -7 -5 -2 -5 12 0 14 2 19 5 13 2 -7 2 -19 0 -25z m1648 -64
c17 -64 19 -164 5 -234 -5 -25 -14 -71 -21 -102 -7 -37 -15 -56 -22 -51 -6 4
-8 0 -4 -11 4 -10 3 -15 -3 -11 -14 9 -12 31 4 47 7 8 17 43 21 79 3 35 9 73
12 84 3 11 2 17 -2 13 -5 -4 -15 -2 -23 5 -13 10 -15 7 -9 -25 3 -21 1 -40 -4
-43 -5 -4 -9 6 -9 22 -1 26 -2 25 -14 -10 -11 -29 -12 -47 -3 -75 7 -23 12
-31 14 -20 3 9 -1 26 -6 37 -14 25 -14 31 -1 31 6 0 10 -10 11 -22 l0 -23 9
23 c5 12 12 22 15 22 4 0 4 -3 2 -7 -3 -5 -10 -28 -17 -52 l-12 -44 -19 32
c-21 34 -24 36 -35 19 -4 -6 -3 -9 2 -6 5 3 16 -9 25 -26 13 -25 14 -33 4 -33
-7 0 -11 6 -8 13 3 8 -2 11 -13 10 -26 -4 -30 -27 -8 -43 16 -12 17 -15 4 -23
-8 -5 -19 -9 -25 -9 -5 0 -4 3 3 6 15 6 6 23 -13 23 -19 0 -26 -26 -15 -56 7
-18 7 -23 -1 -18 -8 4 -9 -1 -4 -16 6 -20 5 -21 -8 -9 -11 10 -12 18 -5 27 6
7 8 15 5 19 -4 3 -16 -6 -28 -20 -11 -15 -27 -27 -35 -27 -8 0 -13 -4 -10 -8
2 -4 -4 -8 -14 -8 -14 0 -16 3 -8 13 6 7 16 13 22 13 7 0 22 10 33 23 18 20
77 116 78 127 2 17 41 100 48 100 5 0 5 4 2 10 -3 5 1 23 9 39 21 40 49 207
42 251 -8 51 10 16 29 -56z m-1726 -71 c-9 -80 -9 -119 -1 -142 8 -23 8 -31
-1 -31 -7 0 -4 -6 6 -14 17 -13 22 -37 11 -49 -4 -4 -7 -22 -8 -41 -1 -36 8
-36 17 -1 3 11 4 5 4 -13 -1 -19 -5 -36 -9 -38 -4 -3 -8 -10 -8 -15 0 -16 21
1 30 25 7 18 9 18 9 3 1 -10 -6 -25 -14 -33 -8 -8 -11 -22 -8 -31 5 -14 8 -13
14 5 11 30 21 28 13 -3 -4 -17 -2 -25 7 -25 11 0 11 -2 2 -8 -9 -6 -2 -18 23
-41 19 -18 38 -30 42 -27 3 4 0 11 -8 16 -9 6 -10 10 -3 10 6 0 15 -5 18 -11
4 -6 14 -8 22 -5 8 3 11 1 8 -4 -3 -6 -13 -10 -21 -10 -8 0 -14 -4 -14 -10 0
-5 6 -7 14 -4 18 7 30 -12 15 -22 -8 -5 -9 -3 -4 6 6 10 4 12 -8 7 -17 -6 -95
57 -99 83 -2 8 -10 21 -19 30 -23 21 -40 78 -32 108 4 17 2 23 -6 18 -8 -5
-11 47 -11 201 0 184 2 206 15 192 13 -13 13 -30 4 -126z m38 105 c-3 -8 -6
-5 -6 6 -1 11 2 17 5 13 3 -3 4 -12 1 -19z m62 -85 c-1 -47 -3 -60 -8 -43 -4
14 -7 32 -5 40 1 8 3 27 3 43 1 15 3 27 6 27 3 0 5 -30 4 -67z m10 -267 c1
-70 -5 -53 -12 29 -3 41 -2 60 3 45 4 -14 8 -47 9 -74z m-32 32 c-3 -8 -6 -5
-6 6 -1 11 2 17 5 13 3 -3 4 -12 1 -19z m1200 2 c9 -11 8 -19 -1 -32 -10 -14
-12 -12 -13 18 -1 20 0 34 1 32 1 -2 7 -10 13 -18z m-92 -52 l-6 -23 13 22
c13 22 14 22 26 2 7 -11 17 -17 22 -14 6 4 7 -1 3 -11 -4 -12 -3 -15 5 -10 8
5 10 2 6 -8 -3 -9 -2 -16 4 -16 5 0 13 -8 16 -17 4 -11 -3 -8 -18 9 -18 20
-26 23 -29 13 -3 -7 1 -16 9 -19 9 -3 13 -10 10 -15 -3 -5 3 -20 13 -32 15
-19 22 -21 32 -12 10 10 15 9 25 -5 14 -18 19 -51 7 -38 -5 4 -8 13 -8 19 0 5
-5 12 -10 14 -6 2 -11 -5 -11 -16 0 -11 5 -19 11 -18 5 1 10 -6 10 -15 0 -9 4
-20 9 -25 5 -4 6 -3 3 3 -7 13 20 41 30 31 3 -4 0 -14 -7 -22 -7 -9 -9 -15 -4
-14 5 1 16 1 24 0 12 -1 12 -3 -2 -11 -9 -6 -23 -7 -31 -4 -17 6 -117 137
-117 152 0 6 -4 12 -8 14 -16 6 -53 68 -47 78 12 19 26 10 20 -12z m65 16 c0
-8 -19 -13 -24 -6 -3 5 1 9 9 9 8 0 15 -2 15 -3z m73 -36 c22 -32 23 -35 6
-31 -11 3 -20 9 -20 14 -1 5 -2 15 -3 22 -1 6 -7 11 -14 10 -6 -2 -9 4 -5 13
6 17 5 19 36 -28z m-1256 0 c-3 -8 -6 -5 -6 6 -1 11 2 17 5 13 3 -3 4 -12 1
-19z m-4526 -272 c11 -71 18 -135 15 -143 -3 -8 -2 -12 3 -9 5 3 16 -27 26
-67 10 -39 42 -142 72 -227 30 -85 55 -161 55 -167 1 -7 5 -13 10 -13 4 0 8
-5 8 -11 0 -27 179 -358 217 -401 8 -9 12 -22 7 -29 -4 -8 -3 -10 4 -5 7 4 12
3 12 -2 0 -16 188 -272 289 -392 115 -138 366 -392 475 -481 43 -35 104 -86
135 -113 31 -26 66 -53 79 -59 12 -6 22 -13 22 -17 0 -4 19 -20 43 -36 46 -31
60 -42 81 -61 8 -7 16 -9 20 -6 3 4 6 1 6 -5 0 -7 5 -12 10 -12 6 0 16 -5 23
-11 31 -27 151 -99 165 -99 8 0 13 -3 9 -6 -7 -8 61 -44 82 -44 8 0 11 -3 8
-7 -9 -8 117 -73 140 -72 16 0 16 1 -1 8 -12 5 -15 10 -9 14 13 8 37 -18 28
-32 -3 -6 7 -13 22 -17 15 -4 30 -10 33 -14 5 -8 126 -70 135 -70 4 0 4 4 1 9
-11 17 32 -1 50 -20 9 -10 21 -19 26 -19 4 0 28 -9 53 -21 25 -12 53 -18 62
-15 10 4 14 4 10 0 -11 -12 49 -33 75 -27 18 4 20 3 8 -6 -13 -9 -13 -11 2
-11 9 0 38 -9 64 -21 l48 -20 -19 22 -20 22 23 -12 c12 -6 22 -15 22 -20 0 -8
65 -31 105 -37 11 -2 58 -12 103 -24 46 -11 87 -18 92 -15 5 3 10 1 12 -3 4
-11 229 -49 373 -63 157 -16 480 -6 630 20 496 84 939 323 1242 670 221 253
328 510 388 933 35 245 73 473 91 543 44 170 125 385 145 385 12 0 12 -2 -10
-53 -23 -54 -73 -268 -100 -432 -20 -120 -27 -181 -57 -455 -8 -80 -22 -181
-30 -224 -8 -44 -13 -80 -11 -82 1 -2 24 24 51 57 50 62 111 123 206 205 30
26 54 51 53 56 -2 4 3 5 10 3 16 -6 173 129 169 145 -2 8 3 10 14 6 12 -5 15
-2 10 9 -3 9 -2 13 4 10 9 -6 14 7 11 27 0 4 6 5 15 1 13 -5 13 -8 -3 -27 -50
-61 -99 -108 -213 -204 -153 -129 -261 -232 -304 -292 -18 -25 -55 -103 -81
-173 -53 -141 -119 -264 -200 -373 -261 -350 -653 -607 -1124 -739 -532 -148
-1185 -100 -1806 133 -512 192 -1017 519 -1425 922 -271 269 -458 507 -656
837 -107 180 -249 483 -226 483 4 0 2 4 -4 8 -31 22 -119 378 -123 497 0 11
-2 34 -4 50 -2 17 -7 75 -10 130 l-6 100 10 -80 c5 -44 18 -138 30 -209z
m5762 239 c4 -8 2 -17 -3 -20 -6 -4 -10 3 -10 14 0 25 6 27 13 6z m-1236 -17
c-3 -8 -6 -5 -6 6 -1 11 2 17 5 13 3 -3 4 -12 1 -19z m140 -70 c12 -9 24 -14
27 -12 3 2 4 1 1 -3 -8 -10 -50 -12 -66 -2 -12 8 -12 10 0 18 18 11 -1 23 -26
15 -15 -5 -15 -4 -3 5 12 8 12 13 2 23 -6 6 -12 16 -12 21 0 5 13 -4 28 -19
15 -16 38 -37 49 -46z m1187 13 c-3 -3 -9 1 -13 8 -5 7 -13 11 -17 8 -5 -3
-10 7 -11 21 l-1 27 23 -30 c13 -16 22 -32 19 -34z m-1277 27 c-3 -8 -6 -5 -6
6 -1 11 2 17 5 13 3 -3 4 -12 1 -19z m413 1 c0 -6 -4 -7 -10 -4 -5 3 -10 2
-10 -4 0 -6 -10 -16 -22 -22 -21 -11 -21 -11 3 18 23 29 39 34 39 12z m803 2
c3 -14 0 -17 -14 -14 -11 3 -22 10 -26 16 -4 6 0 8 10 4 10 -3 17 -2 17 3 0
16 7 11 13 -9z m336 -24 c-7 -15 -16 -27 -21 -27 -4 0 -8 -6 -8 -12 0 -7 -12
-26 -26 -43 l-26 -30 21 31 c11 17 18 33 16 36 -3 3 4 13 15 23 11 10 20 30
20 44 0 17 3 22 10 15 8 -8 7 -19 -1 -37z m-1035 -9 c-16 -31 -20 -33 -30 -16
-5 7 -3 8 6 3 10 -6 12 -4 7 9 -5 11 -3 15 5 10 7 -5 9 -2 6 8 -4 8 0 15 7 15
11 0 11 -6 -1 -29z m1016 22 c0 -5 -4 -10 -10 -10 -5 0 -10 5 -10 10 0 6 5 10
10 10 6 0 10 -4 10 -10z m-204 -57 c-6 -6 -36 9 -36 18 0 5 9 4 20 -3 10 -7
18 -14 16 -15z m164 17 c0 -5 -5 -10 -11 -10 -5 0 -7 5 -4 10 3 6 8 10 11 10
2 0 4 -4 4 -10z m-1175 -10 c-3 -5 -21 -9 -38 -9 l-32 1 30 8 c43 11 47 11 40
0z m-340 -10 c3 -5 1 -10 -4 -10 -6 0 -11 5 -11 10 0 6 2 10 4 10 3 0 8 -4 11
-10z m175 0 c0 -5 -5 -10 -11 -10 -5 0 -7 5 -4 10 3 6 8 10 11 10 2 0 4 -4 4
-10z m309 -36 c-34 -36 -45 -29 -12 9 15 18 30 29 32 24 2 -4 -7 -19 -20 -33z
m1794 26 c-3 -12 -8 -19 -11 -16 -5 6 5 36 12 36 2 0 2 -9 -1 -20z m195 -47
c1 -24 0 -25 -9 -10 -5 9 -7 22 -4 27 9 15 10 13 13 -17z m26 -26 c-10 -26
-22 -20 -16 9 3 15 8 22 14 16 5 -5 6 -16 2 -25z m-2389 13 c-3 -5 -1 -10 5
-10 6 0 8 -4 5 -10 -3 -5 -16 -10 -28 -9 -21 0 -21 1 -2 9 11 5 16 9 12 9 -9
1 0 21 9 21 3 0 2 -4 -1 -10z m291 -15 c-26 -20 -107 -35 -179 -34 -57 2 -55
2 29 10 51 4 107 15 125 23 43 18 48 19 25 1z m884 5 c0 -5 -4 -10 -10 -10 -5
0 -10 5 -10 10 0 6 5 10 10 10 6 0 10 -4 10 -10z m30 -22 c0 -5 -4 -8 -10 -8
-5 0 -10 10 -10 23 0 18 2 19 10 7 5 -8 10 -18 10 -22z m1136 1 c-2 -18 -10
-37 -17 -43 -9 -8 -10 -7 -5 7 3 11 9 30 12 43 9 35 16 30 10 -7z m-1112 10
c-7 -12 86 -8 121 5 19 7 19 7 1 -5 -27 -17 -87 -29 -113 -23 -26 7 -40 34
-17 34 8 0 12 -5 8 -11z m-1187 -15 c-3 -3 -12 -4 -19 -1 -8 3 -5 6 6 6 11 1
17 -2 13 -5z m2490 -20 c-3 -3 -12 -4 -19 -1 -8 3 -5 6 6 6 11 1 17 -2 13 -5z
m159 -51 c3 -16 7 -33 9 -40 5 -14 -13 -21 -38 -15 -13 3 -15 8 -7 17 13 16 0
21 -87 30 -35 4 -63 11 -63 16 0 4 37 10 83 12 45 1 85 4 89 5 4 1 10 -10 14
-25z m-371 -41 c-5 -21 -8 -23 -17 -11 -10 14 -7 -4 9 -53 7 -24 -9 -23 -24 1
-16 25 3 92 19 69 6 -8 7 -1 3 22 -5 29 -4 32 5 17 7 -10 9 -30 5 -45z m422
-99 c-3 -10 -5 -4 -5 12 0 17 2 24 5 18 2 -7 2 -21 0 -30z m-907 -8 c0 -8 -9
-15 -20 -15 -13 0 -18 5 -14 15 4 8 12 15 20 15 8 0 14 -7 14 -15z m-150 -10
c0 -11 -11 -15 -40 -15 -29 0 -40 4 -40 15 0 11 11 15 40 15 29 0 40 -4 40
-15z m570 -11 c0 -14 -4 -23 -9 -20 -5 3 -7 15 -4 26 7 28 13 25 13 -6z
m-5947 -1 c-7 -2 -19 -2 -25 0 -7 3 -2 5 12 5 14 0 19 -2 13 -5z m5577 -37 c0
-8 -4 -17 -8 -20 -4 -2 -8 4 -8 15 0 10 4 19 8 19 4 0 8 -6 8 -14z m-615 -13
c35 -17 45 -36 23 -49 -6 -4 -8 -3 -5 2 10 17 -11 38 -40 40 -60 3 -60 3 -43
14 20 13 24 13 65 -7z m-4958 -30 c-3 -10 -5 -4 -5 12 0 17 2 24 5 18 2 -7 2
-21 0 -30z m5930 -5 c-3 -8 -6 -5 -6 6 -1 11 2 17 5 13 3 -3 4 -12 1 -19z
m-1039 -13 c-3 -3 -9 2 -12 12 -6 14 -5 15 5 6 7 -7 10 -15 7 -18z m666 -14
c-4 -17 -9 -30 -11 -27 -3 2 -2 19 2 36 9 41 17 33 9 -9z m-829 13 c-11 -8
-19 -20 -17 -26 1 -5 -3 -8 -10 -5 -17 6 -48 -10 -48 -25 0 -6 7 -5 18 3 15
13 16 12 3 -3 -7 -10 -17 -15 -22 -12 -12 7 -11 -2 2 -29 9 -21 9 -21 -5 -3
-15 19 -42 13 -30 -6 5 -7 1 -9 -9 -5 -9 3 -19 1 -23 -5 -4 -6 -3 -8 2 -5 6 3
16 1 24 -4 13 -9 13 -10 0 -6 -20 6 -50 -10 -50 -28 0 -7 7 -21 16 -30 9 -9
13 -19 9 -23 -4 -4 -10 -1 -13 7 -4 11 -6 11 -14 0 -6 -10 -7 -7 -3 9 4 13 2
22 -4 22 -6 0 -11 -9 -11 -19 0 -11 -7 -26 -15 -34 -15 -15 -17 -109 -2 -100
4 2 7 -1 7 -7 0 -7 -8 -9 -19 -5 -12 3 -21 1 -24 -7 -2 -7 -3 -6 -2 2 2 8 6
24 10 35 5 14 4 16 -3 6 -7 -10 -11 -10 -17 -1 -7 11 12 70 24 70 3 0 15 18
25 40 24 50 105 141 159 179 43 30 78 43 42 15z m143 -19 c-3 -3 -9 2 -12 12
-6 14 -5 15 5 6 7 -7 10 -15 7 -18z m-4851 -77 c-3 -7 -5 -2 -5 12 0 14 2 19
5 13 2 -7 2 -19 0 -25z m4880 17 c9 -24 -1 -27 -15 -5 -8 13 -8 20 -2 20 6 0
13 -7 17 -15z m-30 -27 c-3 -8 -6 -5 -6 6 -1 11 2 17 5 13 3 -3 4 -12 1 -19z
m660 -49 c-19 -42 -24 -48 -23 -27 0 16 4 28 9 28 4 0 5 12 2 28 -4 21 -3 23
3 7 9 -19 9 -19 16 3 4 13 10 22 12 19 3 -2 -6 -29 -19 -58z m-5500 -41 c-3
-8 -6 -5 -6 6 -1 11 2 17 5 13 3 -3 4 -12 1 -19z m5663 -58 l-11 -25 6 25 c2
14 6 39 6 55 l2 30 4 -30 c2 -17 -1 -42 -7 -55z m-204 12 c-18 -16 -18 -16 -6
6 6 13 14 21 18 18 3 -4 -2 -14 -12 -24z m-940 -19 c-11 -11 -19 6 -11 24 8
17 8 17 12 0 3 -10 2 -21 -1 -24z m59 27 c-3 -5 -13 -10 -21 -10 -8 0 -12 5
-9 10 3 6 13 10 21 10 8 0 12 -4 9 -10z m-4556 -53 c0 -21 -1 -21 -9 -2 -12
28 -12 37 0 30 6 -3 10 -16 9 -28z m5390 -67 c-18 -39 -34 -68 -36 -66 -3 2 5
23 17 46 13 25 19 50 15 63 -4 15 -3 18 3 9 7 -11 11 -7 17 15 4 15 10 22 12
16 3 -7 -10 -44 -28 -83z m-902 48 c-3 -7 -5 -2 -5 12 0 14 2 19 5 13 2 -7 2
-19 0 -25z m-73 -29 c-10 -11 -17 -35 -17 -61 0 -28 -2 -36 -7 -24 -6 19 -7
19 -14 0 -4 -11 -3 -20 3 -22 6 -2 11 -8 11 -14 0 -6 -6 -5 -15 2 -13 11 -14
10 -9 -4 3 -9 2 -16 -3 -16 -12 0 -13 -31 -1 -46 5 -8 3 -14 -7 -18 -9 -3 -15
-18 -15 -35 0 -18 -7 -34 -17 -40 -12 -6 -18 -22 -18 -50 0 -22 -2 -35 -6 -29
-3 5 -9 -3 -13 -18 -4 -15 -14 -37 -23 -48 -15 -20 -15 -20 -8 -1 4 11 29 90
55 175 27 85 53 166 58 180 31 77 44 100 53 94 7 -4 4 -13 -7 -25z m-4404 0
c0 -5 -4 -9 -10 -9 -5 0 -10 7 -10 16 0 8 5 12 10 9 6 -3 10 -10 10 -16z
m4507 -21 c-3 -8 -6 -5 -6 6 -1 11 2 17 5 13 3 -3 4 -12 1 -19z m-100 -35 c-3
-10 -5 -4 -5 12 0 17 2 24 5 18 2 -7 2 -21 0 -30z m-4400 -20 c-3 -10 -5 -4
-5 12 0 17 2 24 5 18 2 -7 2 -21 0 -30z m4426 -35 c10 -16 14 -28 9 -28 -8 0
-32 43 -32 57 0 7 1 6 23 -29z m895 -8 c-14 -22 -24 -19 -15 5 4 8 11 15 17
15 6 0 6 -7 -2 -20z m-5288 -64 c0 -18 -17 8 -24 34 l-7 25 15 -25 c9 -14 15
-29 16 -34z m5246 2 c-9 -12 -16 -19 -16 -15 0 11 24 47 28 42 2 -2 -3 -14
-12 -27z m-5232 -54 c4 -15 5 -29 1 -32 -3 -3 -5 2 -5 11 0 8 -7 23 -16 31
-13 14 -13 16 -1 16 8 0 18 -12 21 -26z m5204 6 c-7 -10 -14 -17 -17 -15 -4 4
18 35 25 35 2 0 -1 -9 -8 -20z m-52 -72 c-9 -12 -16 -19 -16 -15 0 11 24 47
28 42 2 -2 -3 -14 -12 -27z m-5110 -63 c5 -20 4 -26 -5 -21 -6 4 -11 15 -11
24 0 9 -6 29 -14 44 -8 15 -11 30 -8 33 7 7 26 -33 38 -80z m4229 45 c-4 -12
-9 -19 -12 -17 -3 3 -2 15 2 27 4 12 9 19 12 17 3 -3 2 -15 -2 -27z m849 -25
c-4 -8 -11 -12 -16 -9 -6 4 -5 10 3 15 19 12 19 11 13 -6z m-5060 -70 c3 -8 1
-15 -4 -15 -6 0 -10 7 -10 15 0 8 2 15 4 15 2 0 6 -7 10 -15z m5242 -21 c-4
-14 -9 -24 -12 -21 -3 2 -2 17 2 31 3 15 9 25 11 22 3 -3 2 -17 -1 -32z
m-5210 -57 c3 -17 13 -42 22 -55 11 -17 12 -28 4 -45 -10 -20 -11 -18 -11 16
-1 23 -5 36 -11 32 -5 -3 -10 2 -11 12 -1 35 -8 58 -18 61 -6 2 -11 11 -11 19
0 27 28 -5 36 -40z m4110 32 c3 -6 2 -14 -5 -18 -6 -4 -9 -21 -6 -39 2 -18 0
-30 -5 -27 -5 3 -7 12 -4 19 3 8 1 17 -4 20 -11 7 -3 56 9 56 4 0 11 -5 15
-11z m1074 -32 c0 -7 -7 -22 -15 -33 -13 -17 -13 -16 -3 14 13 34 18 40 18 19z
m-1063 -19 c-3 -8 -6 -5 -6 6 -1 11 2 17 5 13 3 -3 4 -12 1 -19z m-58 -54 c-7
-16 -11 -42 -10 -59 1 -21 -1 -26 -7 -17 -7 11 -11 7 -18 -15 -4 -15 -8 -32
-9 -38 0 -5 -7 -20 -13 -33 -14 -24 -35 -21 -26 3 4 8 10 12 16 9 5 -3 8 0 7
7 -2 14 4 33 24 79 6 14 11 27 12 30 14 52 30 91 33 79 1 -8 -3 -29 -9 -45z
m-4067 -46 c-9 -9 -12 -4 -11 23 0 32 1 33 11 11 8 -17 8 -26 0 -34z m5141 -3
c-9 -19 -18 -33 -21 -31 -4 5 26 66 33 66 3 0 -3 -16 -12 -35z m-5076 -15 c3
-16 9 -30 13 -30 5 0 16 -22 26 -50 10 -27 21 -50 24 -50 4 0 12 -12 18 -26
10 -20 9 -30 -3 -47 -8 -12 -15 -17 -15 -11 0 5 6 16 13 23 10 10 9 11 -4 6
-10 -4 -20 -2 -24 4 -3 6 -2 11 3 11 5 0 9 7 9 14 0 8 -3 15 -6 14 -19 -2 -44
4 -33 9 15 6 16 39 0 49 -8 5 -9 1 -5 -12 5 -14 2 -12 -12 6 -13 16 -16 29
-10 35 13 13 11 28 -3 19 -7 -4 -8 -3 -4 4 4 7 4 12 -1 12 -4 0 -9 11 -9 25
-2 35 15 31 23 -5z m144 -266 c33 -58 144 -211 185 -255 l24 -26 -20 -18 c-18
-16 -20 -17 -14 -2 4 11 0 19 -10 23 -11 4 -14 13 -11 25 6 18 -9 27 -18 12
-2 -5 -2 -2 0 5 4 18 -23 56 -31 43 -4 -5 -2 -12 4 -16 5 -3 10 -12 10 -18 0
-7 -7 -4 -14 6 -8 10 -12 27 -9 37 5 20 -17 50 -36 50 -6 0 -11 11 -11 23 0
24 -34 65 -42 50 -3 -4 -3 -3 -2 4 2 7 -1 15 -7 18 -5 4 -7 11 -4 16 4 5 -2 6
-12 2 -15 -6 -16 -4 -5 9 11 13 9 19 -11 35 -13 10 -22 24 -19 31 6 19 18 7
53 -54z m3729 36 c0 -5 -2 -10 -4 -10 -3 0 -8 5 -11 10 -3 6 -1 10 4 10 6 0
11 -4 11 -10z m-10 -29 c0 -4 -6 -8 -14 -8 -8 0 -12 6 -9 14 5 13 23 9 23 -6z
m-3750 -5 c0 -3 -4 -8 -10 -11 -5 -3 -10 -1 -10 4 0 6 5 11 10 11 6 0 10 -2
10 -4z m-33 -38 c-3 -8 -6 -5 -6 6 -1 11 2 17 5 13 3 -3 4 -12 1 -19z m3757
14 c3 -5 -1 -9 -9 -9 -8 0 -12 4 -9 9 3 4 7 8 9 8 2 0 6 -4 9 -8z m-33 -45
c-10 -9 -11 -8 -5 6 3 10 9 15 12 12 3 -3 0 -11 -7 -18z m-33 -66 c-13 -16
-25 -27 -27 -25 -2 2 3 12 12 22 10 10 17 24 17 31 0 7 5 9 10 6 6 -4 1 -17
-12 -34z m-3596 12 c-6 -2 -9 -10 -6 -15 4 -7 2 -8 -5 -4 -13 9 -5 26 12 25 9
0 8 -2 -1 -6z m47 -47 c9 -11 6 -12 -14 -8 -14 2 -25 8 -25 13 0 14 26 11 39
-5z m3491 -40 c0 -3 -4 -8 -10 -11 -5 -3 -10 -1 -10 4 0 6 5 11 10 11 6 0 10
-2 10 -4z m26 -25 c-4 -6 -13 -11 -19 -11 -8 0 -7 3 2 9 8 5 10 14 6 22 -6 11
-5 11 5 2 7 -6 9 -16 6 -22z m-3497 -5 c8 -10 8 -16 -1 -24 -10 -8 -13 -4 -14
14 -2 28 -1 29 15 10z m46 -58 c-6 -27 -8 -29 -25 -18 -11 7 -11 12 -2 23 7 7
9 17 5 21 -4 4 0 4 9 1 10 -4 15 -15 13 -27z m3380 22 c4 -6 2 -9 -3 -8 -5 2
-19 -8 -32 -22 l-22 -25 22 33 c23 35 26 37 35 22z m-3235 -112 c0 -5 -4 -8
-10 -8 -5 0 -10 -5 -10 -11 0 -9 4 -9 14 0 10 9 33 -9 107 -85 52 -52 96 -98
99 -101 3 -3 -8 -3 -23 1 -17 4 -26 3 -23 -2 3 -5 17 -12 31 -14 13 -3 22 -1
19 3 -10 16 11 9 27 -8 9 -10 27 -27 40 -37 13 -10 51 -42 84 -71 33 -28 92
-75 130 -103 39 -28 75 -56 81 -60 5 -5 20 -15 33 -21 22 -12 22 -13 4 -33
-10 -11 -18 -23 -17 -27 1 -11 -23 -30 -30 -24 -12 12 -6 33 10 33 8 0 12 5 9
10 -9 15 -35 12 -35 -3 0 -10 -10 -12 -32 -9 -28 4 -30 6 -13 12 16 6 13 9
-17 15 -21 4 -35 11 -32 16 3 5 10 7 15 4 5 -3 6 0 4 7 -3 8 -23 14 -47 14
-23 1 -46 8 -52 16 -6 7 -19 12 -30 10 -10 -2 -21 0 -25 5 -16 23 -66 53 -80
48 -24 -7 -41 8 -56 51 -10 30 -19 39 -37 40 -32 1 -84 29 -69 38 6 4 11 17
11 29 0 18 2 20 11 7 9 -12 10 -12 5 3 -3 10 -6 24 -6 30 0 7 -4 6 -10 -3 -7
-11 -10 -12 -10 -2 0 8 9 16 20 19 15 4 18 9 10 18 -8 9 -8 15 0 20 17 11 11
25 -11 25 -16 0 -19 5 -15 23 3 12 3 16 0 10 -8 -18 -24 -16 -24 3 0 9 -5 12
-12 8 -7 -5 -8 -3 -4 5 5 7 15 10 23 6 13 -5 14 -3 3 10 -9 11 -15 13 -20 5
-4 -7 -10 -11 -14 -11 -3 1 -6 -1 -6 -4 0 -3 0 -11 0 -18 0 -7 14 -21 30 -30
17 -10 30 -27 30 -38 0 -25 -17 -25 -25 1 -7 21 -25 28 -25 10 0 -17 -24 -11
-50 13 -28 25 -38 57 -18 57 8 0 6 5 -4 11 -10 5 -18 15 -18 20 0 6 4 8 9 5 5
-3 11 3 14 14 3 13 1 20 -6 18 -7 -1 -30 4 -51 11 l-39 14 22 16 c13 10 22 24
20 32 -1 8 1 22 6 32 7 16 12 13 46 -25 21 -24 39 -46 39 -50z m3144 7 c-9
-14 -19 -23 -22 -20 -5 4 26 45 35 45 2 0 -4 -11 -13 -25z m-34 -39 c0 -2 -8
-10 -17 -17 -16 -13 -17 -12 -4 4 13 16 21 21 21 13z m-3200 -36 c0 -5 -4 -10
-10 -10 -5 0 -10 5 -10 10 0 6 5 10 10 10 6 0 10 -4 10 -10z m3160 -4 c0 -2
-8 -10 -17 -17 -16 -13 -17 -12 -4 4 13 16 21 21 21 13z m-35 -56 c3 -5 1 -10
-4 -10 -6 0 -11 5 -11 10 0 6 2 10 4 10 3 0 8 -4 11 -10z m-50 -40 c-3 -5 -12
-10 -18 -10 -7 0 -6 4 3 10 19 12 23 12 15 0z m-2950 -40 c-4 -11 -2 -20 4
-20 6 0 10 -16 9 -35 -1 -19 -5 -35 -10 -35 -4 0 -8 16 -8 35 0 19 -5 35 -10
35 -6 0 -5 8 2 20 7 11 14 20 16 20 2 0 0 -9 -3 -20z m2790 -100 c-10 -11 -22
-20 -28 -20 -5 0 1 9 14 20 31 25 37 25 14 0z m-2528 -187 c-2 -2 -15 1 -28 6
-13 5 -18 10 -11 10 8 1 10 6 6 14 -4 6 2 3 14 -7 12 -11 20 -21 19 -23z m413
-90 c41 -25 90 -52 108 -60 20 -8 30 -18 26 -25 -4 -6 -3 -8 3 -5 6 4 37 -6
70 -22 69 -34 187 -81 202 -81 6 0 11 -4 11 -9 0 -6 -12 -6 -30 1 -17 5 -37 7
-45 4 -8 -3 -14 0 -12 6 3 16 -62 39 -93 32 -17 -3 -21 -2 -11 5 20 13 -19 33
-40 20 -22 -14 -33 -11 -19 6 11 13 10 14 -5 9 -13 -5 -16 -4 -11 4 4 7 1 13
-8 13 -9 1 -20 3 -26 4 -5 1 -13 3 -17 4 -5 1 -1 6 7 11 22 14 -5 13 -32 -1
-15 -8 -19 -8 -13 1 4 7 2 10 -6 9 -23 -4 -65 18 -87 45 -21 28 -60 34 -80 14
-7 -7 -12 -8 -12 -2 0 6 5 15 12 22 7 7 8 12 4 12 -5 0 -3 7 4 15 7 8 15 15
19 15 4 0 40 -21 81 -47z m-195 -13 c3 -6 -1 -7 -9 -4 -18 7 -21 14 -7 14 6 0
13 -4 16 -10z m1815 -24 c0 -2 -7 -7 -16 -10 -8 -3 -12 -2 -9 4 6 10 25 14 25
6z m-1635 -36 c8 -13 -5 -13 -25 0 -13 8 -13 10 2 10 9 0 20 -4 23 -10z m-48
-16 c-3 -3 -12 -4 -19 -1 -8 3 -5 6 6 6 11 1 17 -2 13 -5z m1518 -42 c-3 -3
-11 0 -18 7 -9 10 -8 11 6 5 10 -3 15 -9 12 -12z m-55 -2 c-8 -5 -22 -9 -30
-9 -10 0 -8 3 5 9 27 12 43 12 25 0z m-1190 -10 c0 -5 -5 -10 -11 -10 -5 0 -7
5 -4 10 3 6 8 10 11 10 2 0 4 -4 4 -10z m1095 -20 c-3 -5 -14 -10 -23 -9 -14
0 -13 2 3 9 27 11 27 11 20 0z m-85 -29 c-8 -6 -37 -13 -65 -16 -27 -4 -64
-14 -82 -22 -18 -8 -36 -12 -41 -9 -5 3 -29 -1 -53 -8 -58 -18 -294 -20 -377
-4 -54 10 -65 10 -74 -3 -8 -11 -9 -11 -4 4 4 11 0 17 -12 17 -9 1 -30 8 -47
16 -16 8 -21 12 -10 8 19 -5 100 -21 155 -30 94 -16 392 7 535 40 76 18 96 19
75 7z m-955 -19 c-3 -3 -11 0 -18 7 -9 10 -8 11 6 5 10 -3 15 -9 12 -12z m528
-69 c-7 -2 -21 -2 -30 0 -10 3 -4 5 12 5 17 0 24 -2 18 -5z"/>
<path d="M885 6030 c3 -5 8 -10 11 -10 2 0 4 5 4 10 0 6 -5 10 -11 10 -5 0 -7
-4 -4 -10z"/>
<path d="M7704 4475 c0 -77 2 -107 3 -67 2 40 2 103 0 140 -2 37 -3 4 -3 -73z"/>
<path d="M7711 4294 c0 -11 3 -14 6 -6 3 7 2 16 -1 19 -3 4 -6 -2 -5 -13z"/>
<path d="M7732 4220 c0 -19 2 -27 5 -17 2 9 2 25 0 35 -3 9 -5 1 -5 -18z"/>
<path d="M7702 4220 c0 -14 2 -19 5 -12 2 6 2 18 0 25 -3 6 -5 1 -5 -13z"/>
<path d="M7742 4130 c0 -19 2 -27 5 -17 2 9 2 25 0 35 -3 9 -5 1 -5 -18z"/>
<path d="M7712 4125 c0 -16 2 -22 5 -12 2 9 2 23 0 30 -3 6 -5 -1 -5 -18z"/>
<path d="M7731 4064 c0 -11 3 -14 6 -6 3 7 2 16 -1 19 -3 4 -6 -2 -5 -13z"/>
<path d="M7382 3865 c0 -16 2 -22 5 -12 2 9 2 23 0 30 -3 6 -5 -1 -5 -18z"/>
<path d="M7660 3822 c0 -13 4 -21 9 -17 5 3 12 -7 14 -22 4 -28 4 -28 6 -2 0
14 -6 34 -14 45 -14 18 -14 18 -15 -4z"/>
<path d="M7630 3765 l-25 -14 33 -1 c22 0 32 5 32 15 0 18 -8 18 -40 0z"/>
<path d="M7391 3637 c-18 -18 -13 -27 19 -27 34 0 38 10 11 27 -14 9 -21 9
-30 0z"/>
<path d="M4395 5000 c-3 -5 -1 -10 4 -10 6 0 11 5 11 10 0 6 -2 10 -4 10 -3 0
-8 -4 -11 -10z"/>
<path d="M1475 5291 c-3 -5 -1 -12 4 -15 5 -3 11 1 15 9 6 16 -9 21 -19 6z"/>
<path d="M1462 5250 c0 -14 2 -19 5 -12 2 6 2 18 0 25 -3 6 -5 1 -5 -13z"/>
<path d="M1451 5204 c0 -11 3 -14 6 -6 3 7 2 16 -1 19 -3 4 -6 -2 -5 -13z"/>
<path d="M6727 4789 c-4 -16 -3 -18 9 -8 16 13 19 29 5 29 -5 0 -11 -9 -14
-21z"/>
<path d="M6366 4672 c-3 -5 1 -9 9 -9 8 0 12 4 9 9 -3 4 -7 8 -9 8 -2 0 -6 -4
-9 -8z"/>
<path d="M6490 4650 c0 -5 5 -10 10 -10 6 0 10 5 10 10 0 6 -4 10 -10 10 -5 0
-10 -4 -10 -10z"/>
<path d="M6635 4650 c3 -5 11 -10 16 -10 6 0 7 5 4 10 -3 6 -11 10 -16 10 -6
0 -7 -4 -4 -10z"/>
<path d="M6540 4640 c0 -5 5 -10 11 -10 8 0 8 -4 -1 -14 -9 -12 -8 -15 9 -13
11 0 17 5 15 9 -3 4 4 8 15 8 12 0 21 5 21 11 0 7 -10 9 -25 5 -14 -4 -25 -2
-25 4 0 5 -4 10 -10 10 -5 0 -10 -4 -10 -10z"/>
<path d="M7101 3924 c0 -11 3 -14 6 -6 3 7 2 16 -1 19 -3 4 -6 -2 -5 -13z"/>
<path d="M7090 3788 c0 -10 5 -18 11 -18 6 0 9 -9 6 -20 -3 -11 -1 -18 4 -14
13 8 11 28 -6 50 -13 17 -14 17 -15 2z"/>
<path d="M6831 2817 c-13 -21 -12 -21 5 -5 10 10 16 20 13 22 -3 3 -11 -5 -18
-17z"/>
<path d="M6711 3914 c0 -11 3 -14 6 -6 3 7 2 16 -1 19 -3 4 -6 -2 -5 -13z"/>
<path d="M6711 3864 c0 -11 3 -14 6 -6 3 7 2 16 -1 19 -3 4 -6 -2 -5 -13z"/>
<path d="M6891 3794 c0 -11 3 -14 6 -6 3 7 2 16 -1 19 -3 4 -6 -2 -5 -13z"/>
<path d="M6908 3765 c-2 -25 0 -53 3 -63 3 -9 7 11 8 46 1 72 -5 83 -11 17z"/>
<path d="M6616 3678 c3 -5 10 -6 15 -3 13 9 11 12 -6 12 -8 0 -12 -4 -9 -9z"/>
<path d="M6631 3624 c0 -11 3 -14 6 -6 3 7 2 16 -1 19 -3 4 -6 -2 -5 -13z"/>
<path d="M6891 3630 c0 -8 3 -21 8 -28 6 -11 10 -10 15 4 3 9 4 19 1 22 -3 3
-5 -1 -6 -9 0 -8 -4 -6 -9 6 -6 13 -9 15 -9 5z"/>
<path d="M6595 3600 c-3 -5 -1 -10 4 -10 6 0 11 5 11 10 0 6 -2 10 -4 10 -3 0
-8 -4 -11 -10z"/>
<path d="M6545 3579 c-4 -6 -5 -12 -2 -15 2 -3 7 2 10 11 7 17 1 20 -8 4z"/>
<path d="M6515 3546 c-7 -7 -3 -18 12 -34 15 -17 23 -20 29 -11 4 8 3 9 -4 5
-7 -4 -12 -1 -12 7 0 8 10 19 23 25 20 11 20 12 2 10 -11 -2 -24 0 -30 4 -5 3
-15 1 -20 -6z"/>
<path d="M6460 3465 c7 -9 15 -13 17 -11 7 7 -7 26 -19 26 -6 0 -6 -6 2 -15z"/>
<path d="M6445 3440 c10 -11 20 -18 23 -15 7 6 -18 35 -31 35 -5 0 -2 -9 8
-20z"/>
<path d="M6400 3440 c-9 -6 -10 -10 -3 -10 6 0 15 5 18 10 8 12 4 12 -15 0z"/>
<path d="M6370 3410 c0 -6 7 -13 15 -16 12 -5 13 -10 4 -20 -7 -8 -7 -14 -1
-14 5 0 15 7 22 15 11 13 10 18 -6 30 -23 17 -34 19 -34 5z"/>
<path d="M6331 3391 c-11 -7 -9 -10 9 -16 13 -4 27 -2 34 5 8 10 6 11 -13 5
-16 -5 -21 -4 -17 4 9 13 6 14 -13 2z"/>
<path d="M6285 3371 c-6 -11 13 -26 22 -17 4 3 0 6 -8 6 -11 0 -11 2 1 10 9 6
10 10 3 10 -6 0 -14 -4 -18 -9z"/>
<path d="M1031 4404 c0 -11 3 -14 6 -6 3 7 2 16 -1 19 -3 4 -6 -2 -5 -13z"/>
<path d="M1032 4355 c0 -16 2 -22 5 -12 2 9 2 23 0 30 -3 6 -5 -1 -5 -18z"/>
<path d="M1034 4125 c0 -71 1 -99 3 -62 2 37 2 96 0 130 -2 34 -3 4 -3 -68z"/>
<path d="M4528 4423 c7 -3 16 -2 19 1 4 3 -2 6 -13 5 -11 0 -14 -3 -6 -6z"/>
<path d="M4608 4423 c7 -3 16 -2 19 1 4 3 -2 6 -13 5 -11 0 -14 -3 -6 -6z"/>
<path d="M4593 4395 c9 -8 13 -24 10 -35 -3 -13 0 -20 8 -20 9 0 15 13 16 35
2 31 -1 35 -23 35 -23 0 -24 -2 -11 -15z"/>
<path d="M4337 4289 c-6 -20 -9 -22 -18 -9 -8 11 -9 7 -5 -19 3 -18 6 -50 6
-69 0 -27 3 -33 11 -25 6 6 12 23 12 37 0 15 4 29 9 32 6 4 8 -18 5 -59 -5
-70 4 -100 24 -80 6 6 8 17 3 24 -12 21 -15 77 -4 84 15 9 12 31 -5 49 -8 8
-19 25 -23 37 l-9 23 -6 -25z"/>
<path d="M4320 4053 c0 -43 3 -54 11 -46 16 16 17 78 2 92 -10 9 -13 0 -13
-46z"/>
<path d="M4302 3965 c0 -16 2 -22 5 -12 2 9 2 23 0 30 -3 6 -5 -1 -5 -18z"/>
<path d="M4309 3843 c-4 -26 1 -227 6 -231 3 -3 5 49 5 116 0 67 -2 122 -5
122 -3 0 -5 -3 -6 -7z"/>
<path d="M4362 3830 c0 -14 2 -19 5 -12 2 6 2 18 0 25 -3 6 -5 1 -5 -13z"/>
<path d="M4330 3801 c0 -6 5 -13 10 -16 6 -3 10 1 10 9 0 9 -4 16 -10 16 -5 0
-10 -4 -10 -9z"/>
<path d="M4370 3728 c0 -32 4 -58 10 -58 13 0 13 80 0 100 -7 11 -10 -2 -10
-42z"/>
<path d="M4342 3645 c0 -16 2 -22 5 -12 2 9 2 23 0 30 -3 6 -5 -1 -5 -18z"/>
<path d="M5320 4373 c0 -43 6 -41 13 5 3 17 1 32 -4 32 -5 0 -9 -16 -9 -37z"/>
<path d="M5357 4403 c-4 -3 -7 -11 -7 -17 0 -6 5 -5 12 2 6 6 9 14 7 17 -3 3
-9 2 -12 -2z"/>
<path d="M5383 4130 c0 -25 2 -35 4 -22 2 12 2 32 0 45 -2 12 -4 2 -4 -23z"/>
<path d="M5323 4125 c0 -22 2 -30 4 -17 2 12 2 30 0 40 -3 9 -5 -1 -4 -23z"/>
<path d="M5381 3984 c0 -11 3 -14 6 -6 3 7 2 16 -1 19 -3 4 -6 -2 -5 -13z"/>
<path d="M5362 3965 c0 -16 2 -22 5 -12 2 9 2 23 0 30 -3 6 -5 -1 -5 -18z"/>
<path d="M5381 3944 c0 -11 3 -14 6 -6 3 7 2 16 -1 19 -3 4 -6 -2 -5 -13z"/>
<path d="M5618 4423 c7 -3 16 -2 19 1 4 3 -2 6 -13 5 -11 0 -14 -3 -6 -6z"/>
<path d="M5668 4423 c12 -2 32 -2 45 0 12 2 2 4 -23 4 -25 0 -35 -2 -22 -4z"/>
<path d="M5940 4410 c-23 -7 -23 -8 -3 -9 12 -1 25 4 28 9 3 6 5 10 3 9 -2 -1
-14 -5 -28 -9z"/>
<path d="M5960 4392 l-25 -14 31 6 c28 4 30 3 28 -23 -1 -18 3 -28 12 -28 8 0
14 4 14 9 0 4 -6 8 -12 8 -10 0 -9 3 1 9 10 7 10 10 1 13 -9 3 -8 9 4 21 16
16 16 17 -6 15 -13 -1 -34 -8 -48 -16z"/>
<path d="M6037 4381 c-8 -34 1 -44 33 -38 15 3 32 1 39 -6 13 -13 15 -31 2
-23 -14 9 -42 -5 -35 -16 4 -6 10 -5 15 3 7 11 9 11 9 -2 0 -9 7 -22 15 -29
11 -9 19 -8 37 5 23 17 23 17 -12 10 -30 -5 -33 -4 -19 7 9 7 14 19 11 27 -8
22 -49 61 -66 61 -8 0 -16 6 -18 12 -3 7 -7 2 -11 -11z m38 -29 c-3 -3 -11 0
-18 7 -9 10 -8 11 6 5 10 -3 15 -9 12 -12z"/>
<path d="M5958 4343 c7 -3 16 -2 19 1 4 3 -2 6 -13 5 -11 0 -14 -3 -6 -6z"/>
<path d="M5689 4322 c0 -4 0 -70 0 -147 l0 -140 128 -3 c114 -3 133 0 175 19
37 17 50 31 63 61 21 54 19 99 -8 139 -36 54 -74 67 -224 72 -73 3 -133 2
-134 -1z"/>
<path d="M6048 4323 c6 -2 18 -2 25 0 6 3 1 5 -13 5 -14 0 -19 -2 -12 -5z"/>
<path d="M5591 4304 c0 -11 3 -14 6 -6 3 7 2 16 -1 19 -3 4 -6 -2 -5 -13z"/>
<path d="M6010 4313 c8 -3 22 -11 30 -17 13 -10 13 -9 1 7 -7 9 -21 17 -30 16
-13 0 -14 -1 -1 -6z"/>
<path d="M5620 4300 c0 -3 4 -10 9 -15 5 -6 11 -19 14 -30 3 -12 5 -5 6 16 1
26 -3 36 -14 36 -8 0 -15 -3 -15 -7z"/>
<path d="M5592 4205 c-1 -44 1 -105 5 -135 6 -48 8 -51 13 -25 4 17 3 35 -1
41 -5 5 -10 53 -12 105 l-3 94 -2 -80z"/>
<path d="M6139 4260 c-4 -22 -5 -51 0 -54 3 -2 11 2 18 9 9 10 9 17 -2 31 -8
11 -15 17 -16 14z"/>
<path d="M5573 4160 c0 -41 2 -58 4 -37 2 20 2 54 0 75 -2 20 -4 3 -4 -38z"/>
<path d="M6156 4195 c-9 -26 -7 -32 5 -12 6 10 9 21 6 23 -2 3 -7 -2 -11 -11z"/>
<path d="M5628 4151 c-3 -19 0 -32 8 -35 10 -4 12 3 7 27 -8 42 -10 43 -15 8z"/>
<path d="M6059 4093 c-8 -9 -8 -13 0 -13 6 0 11 4 11 10 0 5 7 7 15 4 8 -4 15
-2 15 3 0 14 -29 12 -41 -4z"/>
<path d="M5630 4080 c0 -5 5 -10 10 -10 6 0 9 -3 9 -7 -1 -5 -1 -24 0 -43 2
-48 21 -19 21 33 0 30 -4 37 -20 37 -11 0 -20 -4 -20 -10z"/>
<path d="M5583 4020 c0 -30 2 -43 4 -27 2 15 2 39 0 55 -2 15 -4 2 -4 -28z"/>
<path d="M6050 4054 c-18 -10 -20 -14 -8 -14 10 0 27 -10 38 -22 16 -17 19
-18 15 -5 -4 10 -2 17 4 17 6 0 11 -5 11 -11 0 -5 4 -7 10 -4 6 4 5 11 -3 20
-7 7 -16 9 -22 5 -6 -5 -17 -5 -25 0 -12 7 -10 11 10 19 14 5 18 10 10 9 -8 0
-26 -6 -40 -14z"/>
<path d="M6006 4032 c6 -4 13 -15 17 -24 3 -10 11 -18 16 -18 12 0 2 32 -13
42 -6 4 -15 8 -21 8 -6 0 -6 -3 1 -8z"/>
<path d="M5980 4004 c-14 -7 -23 -14 -20 -15 34 -6 46 -3 47 13 1 10 1 18 0
17 -1 -1 -13 -7 -27 -15z"/>
<path d="M5690 3995 c-9 -11 -10 -19 -3 -26 8 -8 13 -7 18 2 5 8 4 10 -3 5
-16 -9 -15 7 0 22 7 7 9 12 6 12 -3 0 -11 -7 -18 -15z"/>
<path d="M5913 3995 c0 -7 6 -11 14 -8 7 3 13 6 13 8 0 2 -6 5 -13 8 -8 3 -14
-1 -14 -8z"/>
<path d="M6060 3995 c0 -8 -5 -15 -12 -15 -6 0 -9 -2 -6 -5 3 -3 14 -2 25 2
18 7 19 10 7 21 -12 11 -14 10 -14 -3z"/>
<path d="M5938 3973 c7 -3 16 -2 19 1 4 3 -2 6 -13 5 -11 0 -14 -3 -6 -6z"/>
<path d="M5894 3962 c3 -5 0 -13 -6 -15 -9 -4 -10 -6 -1 -6 17 -1 25 16 12 25
-7 4 -9 3 -5 -4z"/>
<path d="M5653 3922 c-6 -4 -15 -20 -18 -35 -9 -33 -22 -35 -28 -4 -3 12 -4
-2 -2 -31 1 -29 6 -56 10 -60 4 -4 6 8 3 26 -3 22 -1 32 9 32 15 0 14 2 16
-67 1 -29 -1 -53 -5 -53 -5 0 -8 -4 -8 -10 0 -5 7 -7 15 -4 12 5 15 -2 15 -30
0 -24 -4 -36 -12 -35 -27 3 -34 -2 -34 -26 0 -20 5 -25 26 -25 20 0 22 2 10
10 -13 8 -12 10 3 10 16 0 17 12 15 155 -2 85 -3 155 -3 155 0 0 -5 -4 -12 -8z"/>
<path d="M5896 3921 c-4 -6 -2 -11 4 -11 6 0 8 -6 4 -12 -6 -10 -4 -10 7 0 9
9 10 15 2 23 -8 8 -13 8 -17 0z"/>
<path d="M5584 3770 c0 -69 1 -97 3 -62 2 34 2 90 0 125 -2 34 -3 6 -3 -63z"/>
<path d="M5607 3773 c-4 -3 -7 -25 -6 -47 0 -23 3 -34 6 -26 2 8 7 22 11 30
14 36 8 62 -11 43z"/>
<path d="M5580 3620 c0 -11 4 -20 9 -20 5 0 7 9 4 20 -3 11 -7 20 -9 20 -2 0
-4 -9 -4 -20z"/>
<path d="M6451 4164 c0 -11 3 -14 6 -6 3 7 2 16 -1 19 -3 4 -6 -2 -5 -13z"/>
<path d="M6458 4103 c5 -21 7 -23 10 -9 2 10 0 22 -6 28 -6 6 -7 0 -4 -19z"/>
<path d="M6440 4062 c0 -15 4 -20 16 -15 9 3 12 9 7 12 -4 3 -11 10 -15 15 -5
5 -8 0 -8 -12z"/>
<path d="M5953 3847 c4 -10 7 -24 7 -30 0 -8 3 -8 11 0 9 9 7 16 -7 30 -17 17
-18 17 -11 0z"/>
<path d="M2530 956 c0 -2 7 -7 16 -10 8 -3 12 -2 9 4 -6 10 -25 14 -25 6z"/>
<path d="M4930 3710 c0 -5 5 -10 10 -10 6 0 10 5 10 10 0 6 -4 10 -10 10 -5 0
-10 -4 -10 -10z"/>
<path d="M1541 2221 c-8 -5 -9 -11 -3 -15 5 -3 12 1 16 9 6 17 6 18 -13 6z"/>
<path d="M1890 1685 c0 -5 5 -17 10 -25 5 -8 10 -10 10 -5 0 6 -5 17 -10 25
-5 8 -10 11 -10 5z"/>
<path d="M1976 1576 c5 -12 0 -16 -17 -17 -17 -1 -19 -3 -7 -6 10 -2 25 0 33
5 15 8 15 10 0 22 -13 11 -15 10 -9 -4z"/>
<path d="M1950 1520 c0 -5 5 -10 11 -10 5 0 7 5 4 10 -3 6 -8 10 -11 10 -2 0
-4 -4 -4 -10z"/>
<path d="M2088 1435 c-3 -23 1 -36 10 -40 22 -8 25 -6 12 10 -7 8 -10 24 -7
35 3 11 2 22 -3 25 -4 3 -10 -11 -12 -30z"/>
<path d="M2154 1378 c-5 -8 -18 -18 -29 -22 -16 -6 -17 -9 -5 -17 11 -8 7 -9
-15 -5 l-30 6 28 -15 c26 -15 29 -15 60 15 17 16 38 28 45 25 7 -3 10 0 7 6
-4 6 -14 8 -23 4 -8 -3 -19 0 -23 6 -5 8 -9 7 -15 -3z"/>
<path d="M2080 1370 c0 -5 5 -10 10 -10 6 0 10 5 10 10 0 6 -4 10 -10 10 -5 0
-10 -4 -10 -10z"/>
<path d="M2204 1338 c10 -6 22 -6 26 -2 5 5 -3 10 -18 11 -22 1 -24 0 -8 -9z"/>
<path d="M2250 1332 c0 -5 10 -17 21 -28 22 -19 22 -19 10 3 -12 24 -31 39
-31 25z"/>
<path d="M2245 1290 c3 -5 8 -10 11 -10 2 0 4 5 4 10 0 6 -5 10 -11 10 -5 0
-7 -4 -4 -10z"/>
<path d="M2150 1264 c0 -7 9 -22 19 -35 l20 -24 -6 23 c-4 15 -1 22 7 20 7 -2
15 4 17 12 4 13 3 13 -6 0 -10 -13 -11 -13 -11 0 0 13 -1 13 -10 0 -9 -13 -11
-13 -20 0 -5 8 -10 10 -10 4z"/>
<path d="M2300 1261 c8 -5 17 -8 21 -5 4 2 15 -6 23 -18 9 -12 18 -20 20 -17
10 10 -24 40 -50 45 -21 3 -25 2 -14 -5z"/>
<path d="M2457 1143 c-4 -3 -7 -10 -7 -15 0 -9 49 -3 59 8 3 4 -2 4 -11 1 -10
-4 -18 -2 -18 3 0 11 -13 13 -23 3z"/>
<path d="M2600 1056 c7 -7 13 -7 20 0 6 6 3 10 -10 10 -13 0 -16 -4 -10 -10z"/>
<path d="M2650 1028 c0 -4 4 -8 9 -8 5 0 24 -12 42 -27 18 -16 30 -22 25 -15
-9 15 6 16 22 0 6 -6 14 -9 18 -6 3 3 -22 19 -55 35 -34 16 -61 26 -61 21z"/>
</g>
</svg>
